<?xml version="1.0" encoding="UTF-8"?>
<svg xmlns="http://www.w3.org/2000/svg" viewBox="0 0 380 56" role="img" aria-labelledby="title desc">
  <title id="title">Mapmakers wordmark (compact)</title>
  <desc id="desc">Compact mapmakers wordmark with a nodeless graph as the letter p.</desc>
  <defs>
    <linearGradient id="lg" x1="0%" y1="0%" x2="0%" y2="100%">
      <stop offset="0%" stop-color="#ececf8"/>
      <stop offset="100%" stop-color="#b4b4d4"/>
    </linearGradient>
  </defs>
  <rect width="100%" height="100%" rx="4" fill="#0b0d12"/>
  <text x="10" y="36" font-family="ui-sans-serif, system-ui, -apple-system, 'Segoe UI', Roboto, Helvetica, Arial, sans-serif" font-size="26" font-weight="600" fill="url(#lg)" letter-spacing="-0.02em">ma</text>
  <g transform="translate(62, 6)" fill="none" stroke="#9a9ad4" stroke-width="1.35" stroke-linecap="round" stroke-linejoin="round" opacity="0.96">
    <line x1="14" y1="8" x2="14" y2="44"/>
    <line x1="14" y1="24" x2="30" y2="14"/>
    <line x1="30" y1="14" x2="50" y2="17"/>
    <line x1="50" y1="17" x2="60" y2="30"/>
    <line x1="60" y1="30" x2="54" y2="42"/>
    <line x1="54" y1="42" x2="38" y2="46"/>
    <line x1="38" y1="46" x2="22" y2="42"/>
    <line x1="22" y1="42" x2="14" y2="30"/>
    <line x1="14" y1="30" x2="20" y2="18"/>
    <line x1="20" y1="18" x2="30" y2="14"/>
    <line x1="38" y1="24" x2="50" y2="17"/>
    <line x1="38" y1="24" x2="54" y2="42"/>
    <line x1="50" y1="17" x2="38" y2="24"/>
    <line x1="60" y1="30" x2="38" y2="24"/>
    <line x1="32" y1="34" x2="38" y2="46"/>
    <line x1="32" y1="34" x2="54" y2="42"/>
  </g>
  <text x="142" y="36" font-family="ui-sans-serif, system-ui, -apple-system, 'Segoe UI', Roboto, Helvetica, Arial, sans-serif" font-size="26" font-weight="600" fill="url(#lg)" letter-spacing="-0.02em">makers</text>
</svg>
